<svg xmlns="http://www.w3.org/2000/svg" xmlns:xlink="http://www.w3.org/1999/xlink" width="419pt" height="670pt" viewBox="0.00 0.00 419.10 670.20">
<g id="graph0" class="graph" transform="scale(1 1) rotate(0) translate(4 666.2)">
<title>G</title>
<polygon fill="white" stroke="none" points="-4,4 -4,-666.2 415.1,-666.2 415.1,4 -4,4"/>
<!-- A -->
<g id="node1" class="node">
<title>A</title>
<polygon fill="none" stroke="black" points="213.3,-662.2 87.7,-662.2 83.7,-658.2 83.7,-626.2 209.3,-626.2 213.3,-630.2 213.3,-662.2"/>
<polyline fill="none" stroke="black" points="209.3,-658.2 83.7,-658.2"/>
<polyline fill="none" stroke="black" points="209.3,-658.2 209.3,-626.2"/>
<polyline fill="none" stroke="black" points="209.3,-658.2 213.3,-662.2"/>
<text text-anchor="middle" x="148.5" y="-647.5" font-family="SimHei" font-size="11.00">电机雷达</text>
<text text-anchor="middle" x="148.5" y="-634.3" font-family="SimHei" font-size="11.00">启动信号</text>
</g>
<!-- B -->
<g id="node2" class="node">
<title>B</title>
<polygon fill="none" stroke="black" points="148.5,-589.2 76.5,-554.8 148.5,-520.4 220.5,-554.8 148.5,-589.2"/>
<text text-anchor="middle" x="148.5" y="-558.1" font-family="SimHei" font-size="11.00">电机已复位?</text>
<text text-anchor="middle" x="148.5" y="-544.9" font-family="SimHei" font-size="11.00">(状态检测)</text>
</g>
<!-- A&#45;&gt;B -->
<g id="edge1" class="edge">
<title>A-&gt;B</title>
<path fill="none" stroke="black" d="M148.5,-625.93C148.5,-618.66 148.5,-609.82 148.5,-600.9"/>
<polygon fill="black" stroke="black" points="152,-601.18 148.5,-591.18 145,-601.18 152,-601.18"/>
</g>
<!-- C -->
<g id="node3" class="node">
<title>C</title>
<polygon fill="none" stroke="black" points="133.1,-462.8 17.9,-462.8 17.9,-426.8 133.1,-426.8 133.1,-462.8"/>
<text text-anchor="middle" x="75.5" y="-448.1" font-family="SimHei" font-size="11.00">执行电机复位</text>
<text text-anchor="middle" x="75.5" y="-434.9" font-family="SimHei" font-size="11.00">(归零操作)</text>
</g>
<!-- B&#45;&gt;C -->
<g id="edge2" class="edge">
<title>B-&gt;C:w</title>
<path fill="none" stroke="black" d="M115.53,-535.8C65.07,-507.5 -22.64,-454.9 5.7,-446.07"/>
<polygon fill="black" stroke="black" points="5.86,-449.58 15.4,-444.97 5.07,-442.62 5.86,-449.58"/>
<text text-anchor="middle" x="77.47" y="-494.3" font-family="SimHei" font-size="9.00">  未复位</text>
<text text-anchor="middle" x="77.47" y="-483.5" font-family="SimHei" font-size="9.00">(触发复位信号)</text>
</g>
<!-- D -->
<g id="node4" class="node">
<title>D</title>
<polygon fill="none" stroke="black" points="280.3,-462.8 150.7,-462.8 150.7,-426.8 280.3,-426.8 280.3,-462.8"/>
<text text-anchor="middle" x="215.5" y="-448.1" font-family="SimHei" font-size="11.00">直接读取状态</text>
<text text-anchor="middle" x="215.5" y="-434.9" font-family="SimHei" font-size="11.00">(寄存器0x0A)</text>
</g>
<!-- B&#45;&gt;D -->
<g id="edge3" class="edge">
<title>B-&gt;D:e</title>
<path fill="none" stroke="black" d="M181.73,-535.8C232.59,-507.5 321.02,-454.9 292.56,-446.07"/>
<polygon fill="black" stroke="black" points="293.14,-442.62 282.81,-444.97 292.35,-449.57 293.14,-442.62"/>
<text text-anchor="middle" x="287.29" y="-494.3" font-family="SimHei" font-size="9.00">  已复位</text>
<text text-anchor="middle" x="287.29" y="-483.5" font-family="SimHei" font-size="9.00">(读取0x0A)</text>
</g>
<!-- F -->
<g id="node5" class="node">
<title>F</title>
<polygon fill="#f0f8ff" stroke="black" points="212.36,-369.2 134.65,-369.2 134.65,-365.2 130.65,-365.2 130.65,-361.2 134.65,-361.2 134.65,-341.2 130.65,-341.2 130.65,-337.2 134.65,-337.2 134.65,-333.2 212.36,-333.2 212.36,-369.2"/>
<polyline fill="none" stroke="black" points="134.65,-365.2 138.65,-365.2 138.65,-361.2 134.65,-361.2"/>
<polyline fill="none" stroke="black" points="134.65,-341.2 138.65,-341.2 138.65,-337.2 134.65,-337.2"/>
<text text-anchor="middle" x="173.5" y="-354.5" font-family="SimHei" font-size="11.00">JY901S传感器</text>
<text text-anchor="middle" x="173.5" y="-341.3" font-family="SimHei" font-size="11.00">(IMU数据采集)</text>
</g>
<!-- C&#45;&gt;F -->
<g id="edge4" class="edge">
<title>C:se-&gt;F</title>
<path fill="none" stroke="black" d="M133.1,-426.8C146.03,-413.87 135.73,-403.37 144.26,-387.2 145.78,-384.31 147.57,-381.44 149.51,-378.67"/>
<polygon fill="black" stroke="black" points="152.19,-380.93 155.53,-370.87 146.65,-376.65 152.19,-380.93"/>
<text text-anchor="middle" x="166.38" y="-400.7" font-family="SimHei" font-size="9.00">  复位完成</text>
<text text-anchor="middle" x="166.38" y="-389.9" font-family="SimHei" font-size="9.00">(状态码0x01)</text>
</g>
<!-- D&#45;&gt;F -->
<g id="edge5" class="edge">
<title>D-&gt;F</title>
<path fill="none" stroke="black" d="M209.05,-426.5C204.69,-415.18 198.62,-400.15 192.5,-387.2 191.29,-384.63 189.97,-381.98 188.62,-379.35"/>
<polygon fill="black" stroke="black" points="191.86,-377.98 184.07,-370.79 185.67,-381.26 191.86,-377.98"/>
</g>
<!-- G -->
<g id="node6" class="node">
<title>G</title>
<polygon fill="none" stroke="black" points="138,-129.6 135,-133.6 114,-133.6 111,-129.6 67.01,-129.6 67.01,-93.6 138,-93.6 138,-129.6"/>
<text text-anchor="middle" x="102.5" y="-114.9" font-family="SimHei" font-size="11.00">舵机雷达扫描</text>
<text text-anchor="middle" x="102.5" y="-101.7" font-family="SimHei" font-size="11.00">(0-180°探测)</text>
</g>
<!-- F&#45;&gt;G -->
<g id="edge6" class="edge">
<title>F-&gt;G</title>
<path fill="none" stroke="black" d="M160.71,-332.93C146.3,-312.46 123.54,-276.74 113.02,-242.2 102.75,-208.49 101.09,-167.71 101.37,-141.01"/>
<polygon fill="black" stroke="black" points="104.86,-141.39 101.57,-131.32 97.86,-141.24 104.86,-141.39"/>
<text text-anchor="middle" x="141.26" y="-234.1" font-family="SimHei" font-size="9.00">  姿态数据</text>
<text text-anchor="middle" x="141.26" y="-223.3" font-family="SimHei" font-size="9.00">(pitch/roll/yaw)</text>
</g>
<!-- inv1 -->
<g id="node10" class="node">
<title>inv1</title>
</g>
<!-- F&#45;&gt;inv1 -->
<!-- H -->
<g id="node7" class="node">
<title>H</title>
<polygon fill="none" stroke="black" points="259.25,-129.6 256.25,-133.6 235.25,-133.6 232.25,-129.6 193.75,-129.6 193.75,-93.6 259.25,-93.6 259.25,-129.6"/>
<text text-anchor="middle" x="226.5" y="-114.9" font-family="SimHei" font-size="11.00">电机雷达扫描</text>
<text text-anchor="middle" x="226.5" y="-101.7" font-family="SimHei" font-size="11.00">(TOF测距)</text>
</g>
<!-- G&#45;&gt;H -->
<g id="edge7" class="edge">
<title>G-&gt;H</title>
<path fill="none" stroke="black" d="M138.37,-111.6C152.03,-111.6 167.76,-111.6 182.11,-111.6"/>
<polygon fill="black" stroke="black" points="181.75,-115.1 191.75,-111.6 181.75,-108.1 181.75,-115.1"/>
<text text-anchor="middle" x="165.88" y="-128.1" font-family="SimHei" font-size="9.00">  障碍物坐标</text>
<text text-anchor="middle" x="165.88" y="-117.3" font-family="SimHei" font-size="9.00">(X,Y,Z)</text>
</g>
<!-- I -->
<g id="node8" class="node">
<title>I</title>
<polygon fill="none" stroke="black" points="245.1,-36 129.9,-36 129.9,0 245.1,0 245.1,-36"/>
<text text-anchor="middle" x="187.5" y="-21.3" font-family="SimHei" font-size="11.00">电机动作</text>
<text text-anchor="middle" x="187.5" y="-8.1" font-family="SimHei" font-size="11.00">(PWM控制)</text>
</g>
<!-- H&#45;&gt;I -->
<g id="edge8" class="edge">
<title>H-&gt;I</title>
<path fill="none" stroke="black" d="M219.17,-93.37C213.59,-80.28 205.81,-61.99 199.35,-46.83"/>
<polygon fill="black" stroke="black" points="202.67,-45.69 195.53,-37.86 196.23,-48.43 202.67,-45.69"/>
<text text-anchor="middle" x="226.99" y="-67.5" font-family="SimHei" font-size="9.00">  运动路径</text>
<text text-anchor="middle" x="226.99" y="-56.7" font-family="SimHei" font-size="9.00">(速度曲线)</text>
</g>
<!-- J -->
<g id="node9" class="node">
<title>J</title>
<polygon fill="none" stroke="black" points="411.1,-36 295.9,-36 295.9,0 411.1,0 411.1,-36"/>
<text text-anchor="middle" x="353.5" y="-21.3" font-family="SimHei" font-size="11.00">舵机动作</text>
<text text-anchor="middle" x="353.5" y="-8.1" font-family="SimHei" font-size="11.00">(角度控制)</text>
</g>
<!-- I&#45;&gt;J -->
<g id="edge9" class="edge">
<title>I-&gt;J</title>
<path fill="none" stroke="black" d="M245.56,-18C258.07,-18 271.42,-18 284.3,-18"/>
<polygon fill="black" stroke="black" points="283.96,-21.5 293.96,-18 283.96,-14.5 283.96,-21.5"/>
<text text-anchor="middle" x="270.5" y="-34.5" font-family="SimHei" font-size="9.00">  协同控制</text>
<text text-anchor="middle" x="270.5" y="-23.7" font-family="SimHei" font-size="9.00">(同步信号)</text>
</g>
<!-- J&#45;&gt;F -->
<g id="edge10" class="edge">
<title>J-&gt;F</title>
<path fill="none" stroke="black" stroke-dasharray="5,2" d="M349.23,-36.44C345.11,-54.78 339.5,-84.54 339.5,-110.6 339.5,-279.2 339.5,-279.2 339.5,-279.2 339.5,-329.98 273.02,-344.92 224.2,-349.05"/>
<polygon fill="black" stroke="black" points="224.08,-345.55 214.35,-349.74 224.57,-352.53 224.08,-345.55"/>
<text text-anchor="middle" x="359.38" y="-187.3" font-family="SimHei" font-size="9.00">  执行反馈</text>
<text text-anchor="middle" x="359.38" y="-176.5" font-family="SimHei" font-size="9.00">(状态寄存器)</text>
</g>
<!-- inv2 -->
<g id="node11" class="node">
<title>inv2</title>
</g>
<!-- inv1&#45;&gt;inv2 -->
<!-- inv2&#45;&gt;G -->
</g>
</svg>